<?xml version="1.0" encoding="utf-8"?>
<!-- Generator: Adobe Illustrator 27.5.0, SVG Export Plug-In . SVG Version: 6.00 Build 0)  -->
<svg version="1.1" xmlns="http://www.w3.org/2000/svg" xmlns:xlink="http://www.w3.org/1999/xlink" x="0px" y="0px"
	 viewBox="0 0 500 500" style="enable-background:new 0 0 500 500;" xml:space="preserve">
<g id="BACKGROUND">
	<rect style="fill:#E5EDFD;" width="500" height="500"/>
</g>
<g id="OBJECTS">
	<g>
		<g>
			<path style="fill:#FFFFFF;" d="M391.586,150.352c0,0,3.096-8.934,12.382-9.163c9.286-0.229,5.953,5.498,15.716,4.582
				c9.763-0.916,6.191-11.912,21.43-14.203c15.239-2.291,21.668,18.785,21.668,18.785H391.586z"/>
			<path style="fill:#FFFFFF;" d="M230.576,43.531c0,0,2.312-6.672,9.247-6.843c6.935-0.171,4.445,4.106,11.736,3.421
				c7.29-0.684,4.623-8.896,16.003-10.606c11.38-1.711,16.181,14.028,16.181,14.028H230.576z"/>
			<path style="fill:#FFFFFF;" d="M25.685,110.829c0,0,2.066-5.963,8.263-6.115c6.198-0.153,3.973,3.669,10.488,3.058
				c6.515-0.611,4.132-7.95,14.302-9.479C68.909,96.764,73.2,110.829,73.2,110.829H25.685z"/>
		</g>
		<g>
			<g>
				<g>
					<path style="fill:#E5EDFD;" d="M266.57,461.805H124.792c-15.722,0-28.467-12.745-28.467-28.467v-332.63
						c0-15.722,12.745-28.467,28.467-28.467H266.57c15.722,0,28.467,12.745,28.467,28.467v332.63
						C295.037,449.06,282.292,461.805,266.57,461.805z"/>
					<g>
						<path style="fill:#060000;" d="M266.57,81.989c10.322,0,18.72,8.398,18.72,18.72v332.63c0,10.322-8.398,18.72-18.72,18.72
							H124.792c-10.322,0-18.72-8.398-18.72-18.72v-332.63c0-10.322,8.398-18.72,18.72-18.72H266.57 M266.57,72.241H124.792
							c-15.722,0-28.467,12.745-28.467,28.467v332.63c0,15.722,12.745,28.467,28.467,28.467H266.57
							c15.722,0,28.467-12.745,28.467-28.467v-332.63C295.037,84.987,282.292,72.241,266.57,72.241L266.57,72.241z"/>
					</g>
					<g>
						<path style="fill:#060000;" d="M240.036,73.225h-88.711v10.319c0,4.573,3.707,8.28,8.28,8.28h72.151
							c4.573,0,8.28-3.707,8.28-8.28V73.225L240.036,73.225z"/>
					</g>
					
						<line style="fill:none;stroke:#FFFFFF;stroke-width:0.764;stroke-linecap:round;stroke-linejoin:round;stroke-miterlimit:10;" x1="179.168" y1="80.956" x2="213.185" y2="80.956"/>
				</g>
				<g>
					<g>
						<path style="fill:#9BBDF9;" d="M231.108,419.002H129.786c-4.377,0-7.926-3.548-7.926-7.926v-84.625
							c0-4.377,3.549-7.926,7.926-7.926h101.322c4.377,0,7.926,3.549,7.926,7.926v84.625
							C239.034,415.453,235.485,419.002,231.108,419.002z"/>
						<g>
							<path style="fill:#FFFFFF;" d="M164.688,362.173h-23.283c-1.741,0-3.152-1.411-3.152-3.152v-23.284
								c0-1.741,1.411-3.152,3.152-3.152h23.283c1.741,0,3.152,1.411,3.152,3.152v23.284
								C167.839,360.762,166.428,362.173,164.688,362.173z"/>
							
								<line style="fill:none;stroke:#000000;stroke-width:1.3;stroke-linecap:round;stroke-linejoin:round;stroke-miterlimit:10;" x1="177.938" y1="341.92" x2="204.681" y2="341.92"/>
							
								<line style="fill:none;stroke:#000000;stroke-width:1.3;stroke-linecap:round;stroke-linejoin:round;stroke-miterlimit:10;" x1="177.938" y1="351.443" x2="221.064" y2="351.443"/>
							
								<line style="fill:none;stroke:#FFFFFF;stroke-width:1.3;stroke-linecap:round;stroke-linejoin:round;stroke-miterlimit:10;" x1="138.252" y1="374.49" x2="167.839" y2="374.49"/>
							
								<line style="fill:none;stroke:#FFFFFF;stroke-width:1.3;stroke-linecap:round;stroke-linejoin:round;stroke-miterlimit:10;" x1="138.252" y1="384.322" x2="221.064" y2="384.322"/>
							
								<line style="fill:none;stroke:#FFFFFF;stroke-width:1.3;stroke-linecap:round;stroke-linejoin:round;stroke-miterlimit:10;" x1="138.252" y1="395.154" x2="221.064" y2="395.154"/>
						</g>
					</g>
					<g>
						
							<ellipse transform="matrix(0.2321 -0.9727 0.9727 0.2321 -121.8556 182.8533)" style="fill:#DC761C;" cx="54.883" cy="168.604" rx="23.731" ry="23.731"/>
						
							<polyline style="fill:none;stroke:#FFFFFF;stroke-width:2.1361;stroke-linecap:round;stroke-linejoin:round;stroke-miterlimit:10;" points="
							45.323,169.734 52.772,175.251 65.532,162.01 						"/>
					</g>
					<g>
						<path style="fill:#4479FA;" d="M147.583,297.207H68.124c-2.864,0-5.185-2.322-5.185-5.185v-55.362
							c0-2.864,2.321-5.185,5.185-5.185h79.459c2.864,0,5.185,2.321,5.185,5.185v55.362
							C152.768,294.885,150.446,297.207,147.583,297.207z"/>
						<g>
							<path style="fill:#FFFFFF;" d="M121.701,258.989c0-7.838-6.354-14.191-14.192-14.191c-7.838,0-14.192,6.354-14.192,14.191
								c0,2.619,0.722,5.064,1.959,7.17h-0.008l0.04,0.053c0.544,0.917,1.185,1.767,1.915,2.536l10.285,13.624l10.275-13.613
								c0.738-0.776,1.385-1.635,1.934-2.563l0.029-0.039h-0.006C120.979,264.053,121.701,261.608,121.701,258.989z
								 M107.509,265.168c-3.449,0-6.245-2.796-6.245-6.246c0-3.449,2.796-6.245,6.245-6.245c3.449,0,6.245,2.796,6.245,6.245
								C113.755,262.372,110.959,265.168,107.509,265.168z"/>
						</g>
					</g>
					<g>
						<path style="fill:#FFFFFF;" d="M264.165,221.795H127.136c-4.377,0-7.926-3.549-7.926-7.926v-84.625
							c0-4.377,3.549-7.926,7.926-7.926h137.029c4.377,0,7.926,3.549,7.926,7.926v84.625
							C272.091,218.246,268.542,221.795,264.165,221.795z"/>
						<g>
							<g>
								<path style="fill:#9BBDF9;" d="M154.96,171.219h-20.416c-1.526,0-2.764-1.237-2.764-2.764v-20.416
									c0-1.526,1.237-2.764,2.764-2.764h20.416c1.526,0,2.764,1.237,2.764,2.764v20.416
									C157.723,169.981,156.486,171.219,154.96,171.219z"/>
								<path style="fill:#9BBDF9;" d="M188.01,171.219h-20.416c-1.526,0-2.764-1.237-2.764-2.764v-20.416
									c0-1.526,1.237-2.764,2.764-2.764h20.416c1.526,0,2.764,1.237,2.764,2.764v20.416
									C190.774,169.981,189.536,171.219,188.01,171.219z"/>
								<path style="fill:#9BBDF9;" d="M221.06,171.219h-20.416c-1.526,0-2.764-1.237-2.764-2.764v-20.416
									c0-1.526,1.237-2.764,2.764-2.764h20.416c1.526,0,2.764,1.237,2.764,2.764v20.416
									C223.824,169.981,222.587,171.219,221.06,171.219z"/>
								<path style="fill:#DC761C;" d="M254.111,171.219h-20.416c-1.526,0-2.764-1.237-2.764-2.764v-20.416
									c0-1.526,1.237-2.764,2.764-2.764h20.416c1.526,0,2.764,1.237,2.764,2.764v20.416
									C256.874,169.981,255.637,171.219,254.111,171.219z"/>
							</g>
							<g>
								<path style="fill:#9BBDF9;" d="M154.96,206.214h-20.416c-1.526,0-2.764-1.237-2.764-2.764v-20.416
									c0-1.526,1.237-2.764,2.764-2.764h20.416c1.526,0,2.764,1.237,2.764,2.764v20.416
									C157.723,204.977,156.486,206.214,154.96,206.214z"/>
								<path style="fill:#9BBDF9;" d="M188.01,206.214h-20.416c-1.526,0-2.764-1.237-2.764-2.764v-20.416
									c0-1.526,1.237-2.764,2.764-2.764h20.416c1.526,0,2.764,1.237,2.764,2.764v20.416
									C190.774,204.977,189.536,206.214,188.01,206.214z"/>
								<path style="fill:#9BBDF9;" d="M221.06,206.214h-20.416c-1.526,0-2.764-1.237-2.764-2.764v-20.416
									c0-1.526,1.237-2.764,2.764-2.764h20.416c1.526,0,2.764,1.237,2.764,2.764v20.416
									C223.824,204.977,222.587,206.214,221.06,206.214z"/>
								<path style="fill:#9BBDF9;" d="M254.111,206.214h-20.416c-1.526,0-2.764-1.237-2.764-2.764v-20.416
									c0-1.526,1.237-2.764,2.764-2.764h20.416c1.526,0,2.764,1.237,2.764,2.764v20.416
									C256.874,204.977,255.637,206.214,254.111,206.214z"/>
							</g>
							
								<text transform="matrix(1 0 0 1 131.78 138.9014)" style="fill:#DC761C; font-family:'BuiltTitlingRg-Regular'; font-size:14.6968px;">october</text>
						</g>
					</g>
					<g>
						<path style="fill:#FFFFFF;" d="M266.905,297.207H177.26c-2.864,0-5.185-2.322-5.185-5.185v-55.362
							c0-2.864,2.321-5.185,5.185-5.185h89.645c2.864,0,5.185,2.321,5.185,5.185v55.362
							C272.091,294.885,269.769,297.207,266.905,297.207z"/>
						<path style="fill:#9BBDF9;" d="M258.492,253.874h-71.05c-1.526,0-2.764-1.237-2.764-2.764v-9.416
							c0-1.526,1.237-2.764,2.764-2.764h71.05c1.526,0,2.764,1.237,2.764,2.764v9.416
							C261.256,252.637,260.019,253.874,258.492,253.874z"/>
						<g>
							
								<line style="fill:none;stroke:#000000;stroke-width:1.3;stroke-linecap:round;stroke-linejoin:round;stroke-miterlimit:10;" x1="185.678" y1="263.661" x2="220.577" y2="263.661"/>
							
								<line style="fill:none;stroke:#000000;stroke-width:1.3;stroke-linecap:round;stroke-linejoin:round;stroke-miterlimit:10;" x1="185.678" y1="272.16" x2="260.256" y2="272.16"/>
							
								<line style="fill:none;stroke:#000000;stroke-width:1.3;stroke-linecap:round;stroke-linejoin:round;stroke-miterlimit:10;" x1="185.678" y1="281.534" x2="260.256" y2="281.534"/>
						</g>
					</g>
					<g>
						<path style="fill:#DC761C;" d="M314.977,397.61h-51.962c-3.486,0-6.312-2.826-6.312-6.312v-45.069
							c0-3.486,2.826-6.312,6.312-6.312h51.962c3.486,0,6.312,2.826,6.312,6.312v45.069
							C321.29,394.784,318.464,397.61,314.977,397.61z"/>
						<path style="fill:#FFFFFF;" d="M301.792,366.25l-2.122-0.372c-0.248-0.925-0.616-1.813-1.095-2.642l1.237-1.764
							c0.455-0.648,0.378-1.529-0.182-2.088l-1.271-1.271c-0.568-0.55-1.448-0.612-2.088-0.149l-1.764,1.237
							c-0.829-0.479-1.718-0.847-2.642-1.095l-0.365-2.169c-0.133-0.77-0.794-1.337-1.575-1.352h-1.831
							c-0.794-0.002-1.473,0.569-1.608,1.352l-0.372,2.115c-0.925,0.248-1.813,0.616-2.642,1.095l-1.757-1.183
							c-0.648-0.455-1.529-0.378-2.088,0.182l-1.271,1.271c-0.56,0.559-0.637,1.44-0.182,2.088l1.237,1.764
							c-0.479,0.829-0.847,1.718-1.095,2.642l-2.115,0.372c-0.782,0.135-1.353,0.814-1.352,1.608v1.798
							c-0.002,0.794,0.569,1.473,1.352,1.608l2.115,0.372c0.248,0.925,0.616,1.813,1.095,2.642l-1.237,1.764
							c-0.455,0.648-0.378,1.529,0.182,2.088l1.271,1.271c0.559,0.56,1.44,0.637,2.088,0.182l1.764-1.237
							c0.829,0.478,1.718,0.846,2.642,1.095l0.372,2.115c0.135,0.782,0.815,1.353,1.608,1.352h1.825
							c0.794,0.002,1.473-0.569,1.608-1.352l0.372-2.115c0.925-0.248,1.813-0.616,2.642-1.095l1.723,1.21
							c0.648,0.455,1.529,0.378,2.088-0.182l1.271-1.271c0.56-0.559,0.637-1.44,0.182-2.088l-1.237-1.777
							c0.478-0.829,0.847-1.718,1.095-2.642l2.122-0.372c0.782-0.135,1.353-0.815,1.352-1.608v-1.798
							C303.142,367.06,302.572,366.384,301.792,366.25z M288.993,374.386c-3.113,0-5.636-2.523-5.636-5.636
							c0-3.113,2.523-5.636,5.636-5.636c3.113,0,5.636,2.523,5.636,5.636c0,0.01,0,0.021,0,0.031
							C294.612,371.882,292.093,374.386,288.993,374.386z"/>
					</g>
				</g>
			</g>
			
				<line style="fill:none;stroke:#000000;stroke-width:0.75;stroke-miterlimit:10;" x1="40.403" y1="461.805" x2="450.344" y2="461.805"/>
		</g>
	</g>
	<g>
		<g>
			<g>
				<path style="fill:#9BBDF9;" d="M375.47,91.36h40.308c9.965,0,18.043-8.078,18.043-18.043l0,0
					c0-9.965-8.078-18.043-18.043-18.043H375.47c-9.965,0-18.043,8.078-18.043,18.043l0,0
					C357.427,83.282,365.505,91.36,375.47,91.36z"/>
				<polygon style="fill:#9BBDF9;" points="389.655,87.383 376.575,100.225 374.197,86.432 				"/>
			</g>
			<g>
				<path style="fill:#FFFFFF;" d="M389.571,67.59c-1.881-1.841-4.892-1.809-6.731,0.071l-1.213,1.238l-1.248-1.229
					c-1.872-1.846-4.887-1.822-6.732,0.051c-1.844,1.874-1.822,4.888,0.053,6.733l4.631,4.561c0.01,0.01,0.016,0.021,0.026,0.031
					c0.739,0.724,1.653,1.157,2.603,1.303c1.465,0.225,3.013-0.235,4.128-1.374l4.555-4.652
					C391.482,72.444,391.45,69.43,389.571,67.59z"/>
				
					<line style="fill:none;stroke:#FFFFFF;stroke-width:1.0186;stroke-linecap:round;stroke-linejoin:round;stroke-miterlimit:10;" x1="398.68" y1="69.191" x2="417.224" y2="69.191"/>
				
					<line style="fill:none;stroke:#FFFFFF;stroke-width:1.0186;stroke-linecap:round;stroke-linejoin:round;stroke-miterlimit:10;" x1="398.68" y1="74.336" x2="408.461" y2="74.336"/>
			</g>
		</g>
		<g>
			<g>
				<g>
					<g>
						<g>
							<path style="fill:#200902;" d="M337.805,449.35l-11.86,6.529c-1.257,0.692-2.019,2.276-1.629,3.778
								c0.308,1.187,1.321,2.093,3.959,2.146c5.863,0.117,31.808-4.207,31.808-4.207v3.73l12.124,0.063
								c0,0,0.758-17.635-2.908-19.883L337.805,449.35z"/>
							<path style="fill:#ECC696;" d="M353.694,436.381l-15.888,12.969c0,0,2.044,5.865,11.099,1.955
								c9.054-3.91,20.396-9.799,20.396-9.799l-1.654-6.786L353.694,436.381z"/>
						</g>
						<polygon style="fill:#ECC696;" points="367.647,434.72 369.3,387.639 353.553,386.36 353.553,441.506 						"/>
					</g>
					<polygon style="fill:#3A2222;" points="339.605,246.285 346.192,429.623 376.735,429.623 378.295,231.474 					"/>
				</g>
				<g>
					<path style="fill:#523332;" d="M343.03,243.071l15.368,89.327c1.863,11.025,13.167,17.749,23.744,14.126h0
						c7.78-2.665,12.791-10.234,12.206-18.438l-2.941-40.574c-1.483-13.772,1.933-31.582-13.112-56.037L343.03,243.071z"/>
					<g>
						<g>
							<g>
								<path style="fill:#200902;" d="M423.807,444.85l-6.59,11.826c-0.698,1.253-0.504,3.001,0.624,4.066
									c0.891,0.842,2.23,1.074,4.495-0.281c5.032-3.012,24.731-20.44,24.731-20.44l1.979,3.162l10.311-6.378
									c0,0-8.712-15.351-13.013-15.311L423.807,444.85z"/>
								<path style="fill:#ECC696;" d="M430.396,425.427l-6.588,19.423c0,0,4.844,3.887,10.445-4.231
									c5.601-8.118,12.091-19.127,12.091-19.127l-5.002-4.875L430.396,425.427z"/>
							</g>
							<polygon style="fill:#ECC696;" points="441.342,416.617 417.768,375.83 403.74,383.1 432.995,429.846 							"/>
						</g>
						<polygon style="fill:#523332;" points="360.687,338.639 417.458,423.303 443.914,406.342 389.046,314.225 						"/>
					</g>
				</g>
			</g>
			<g>
				<path style="fill:#DC761C;" d="M318.332,97.993c0,0-12.615-1.643-14.261,10.296c-1.225,8.887,2.866,13.264-0.339,20.412
					c-3.206,7.148,2.808,13.539,2.808,13.539s14.945,6.941,31.18-7.254L318.332,97.993z"/>
				<polygon style="fill:#ECC696;" points="323.234,137.932 330.077,155.712 344.399,151.898 331.172,126.338 				"/>
				<polygon points="326.504,146.428 329.439,133.401 324.102,140.186 				"/>
				<path style="fill:#ECC696;" d="M316.734,100.666c0,0-8.501,1.794-8.506,12.583c0,0-0.408,4.123,0.132,15.364
					c0.383,7.961,4.139,13.474,11.609,12.712c3.623-0.37,7.417-2.581,10.815-5.443l4.759-4.85
					c11.004-13.427-0.476-33.663-17.566-30.611C317.569,100.493,317.154,100.575,316.734,100.666z"/>
				<path style="fill:#ECC696;" d="M308.904,122.339l-3.013,5.289c-0.354,0.56-0.169,1.422,0.569,1.469l3.906,0.508L308.904,122.339
					z"/>
				<path style="fill:#DC761C;" d="M328.997,119.197c0.303-2.442,1.963-19.429-10.763-17.236c-1.974,0.34-2.975-2.289-1.276-3.35
					c4.547-2.839,11.77-4.797,22.211-0.776c4.239,1.633,10.08,7.222,10.082,12.712c0.006,11.786-3.921,17.762-10.829,23.829
					c-0.355,0.312-0.914,0.206-1.131-0.214l-4.451-8.601c-0.016-0.031-0.028-0.06-0.038-0.093c-0.491-1.561-2.968-4.845-3.663-5.747
					C329.024,119.569,328.974,119.386,328.997,119.197z"/>
				<path style="fill:#DC761C;" d="M320.478,97.79c-16.004,7.378,7.416,24.939,7.416,24.939l0,0l6.591-12.973
					C334.485,109.755,323.151,96.557,320.478,97.79z"/>
				<g>
					<path d="M309.87,112.483l8.463,2.869c0,0-1.473-2.722-4.474-4.18C309.827,109.213,309.87,112.483,309.87,112.483z"/>
					<g>
						<g>
							<defs>
								<path id="XMLID_2_" d="M311.649,118.264c0,0,2.845,0.617,2.945,3.458c0.099,2.841-2.996,2.647-2.996,2.647
									S308.927,120.931,311.649,118.264z"/>
							</defs>
							<use xlink:href="#XMLID_2_"  style="overflow:visible;fill:#FFFFFF;"/>
							<clipPath id="XMLID_00000147205090450779586000000011381216814726039487_">
								<use xlink:href="#XMLID_2_"  style="overflow:visible;"/>
							</clipPath>
							<path style="clip-path:url(#XMLID_00000147205090450779586000000011381216814726039487_);" d="M312.224,117.53
								c0,0,2.21,4.108-0.627,6.84c-2.837,2.731,0,0,0,0l-1.592-0.152l-0.075-4.528L312.224,117.53z"/>
						</g>
						<g>
							<path d="M310.963,117.55c0.525,0.036,0.946,0.153,1.388,0.325c0.43,0.174,0.834,0.42,1.179,0.727
								c0.345,0.306,0.639,0.668,0.839,1.072c0.219,0.394,0.333,0.826,0.427,1.248c0.02,0.089-0.037,0.177-0.126,0.197
								c-0.081,0.018-0.161-0.027-0.19-0.102l-0.005-0.013c-0.145-0.379-0.303-0.75-0.543-1.061
								c-0.221-0.322-0.511-0.584-0.826-0.79c-0.316-0.207-0.666-0.356-1.032-0.445c-0.355-0.087-0.768-0.126-1.081-0.099
								l-0.021,0.002c-0.293,0.025-0.55-0.192-0.575-0.485c-0.025-0.293,0.192-0.55,0.485-0.575
								C310.908,117.548,310.937,117.548,310.963,117.55z"/>
						</g>
					</g>
					<path style="fill:#C7181B;" d="M308.883,131.114c-1.011,0.159-1.087,1.33-0.162,1.708c0,0-1.224,1.248,0.633,1.664
						c1.857,0.415,3.596-2.754,3.596-2.754C310.686,132.234,310.216,130.905,308.883,131.114z"/>
				</g>
				<path style="fill:#DC761C;" d="M330.185,126.409c0.996,7.121,0.168,14.986,0.168,14.986s20.196,6.49,29.373-16.49
					c0,0-5.861-2.261-7.661-7.299c-1.799-5.038-0.023-22.566-23.597-22.046C328.469,95.559,329.063,118.386,330.185,126.409z"/>
				<g>
					<path style="fill:#ECC696;" d="M337.944,122.585c0.372,2.982-1.743,5.702-4.725,6.074c-2.982,0.372-5.702-1.743-6.074-4.726
						c-0.372-2.982,1.743-5.701,4.726-6.074C334.852,117.487,337.571,119.603,337.944,122.585z"/>
					
						<path style="fill:none;stroke:#000000;stroke-width:0.5111;stroke-linecap:round;stroke-linejoin:round;stroke-miterlimit:10;" d="
						M330.185,125.56c0,0,0.214-4.143,3.627-4.216"/>
				</g>
			</g>
			<g>
				<g>
					<g>
						<path style="fill:#ECC696;" d="M365.341,165.552l33.475,27.109c4.793,4.094,5.157,11.377,0.796,15.929h0
							c-3.988,4.163-10.519,4.528-14.947,0.836l-36.33-28.78L365.341,165.552z"/>
						<path style="fill:#467AC9;" d="M385.424,175.505c0,0-1.431,10.794-20.241,23.183l-25.568-19.006
							c-7.14-5.308-8.183-15.6-2.253-22.232l0,0c4.913-5.494,13.069-6.65,19.315-2.737L385.424,175.505z"/>
					</g>
					<g>
						<g>
							<path style="fill:#ECC696;" d="M384.807,209.815l33.205,42.66l8.144-9.546l-24.823-47.385
								c-4.037-5.446-12.004-5.952-16.697-1.058l0,0C380.509,198.789,380.585,205.604,384.807,209.815z"/>
						</g>
						<g>
							<path style="fill:#ECC696;" d="M416.076,250.664l-0.341,2.136c-0.459,2.869-0.236,5.807,0.649,8.574l1.558,4.873
								c0.37,1.158,1.693,1.705,2.773,1.148l0,0c0.912-0.471,1.447-1.449,1.351-2.471l-0.508-5.406l10.8,15.285
								c0.51,0.762,1.573,0.904,2.265,0.301l0.464-0.404c0.546-0.476,0.681-1.271,0.323-1.9l-6.896-10.542l9.596,11.014
								c0.557,0.725,1.622,0.799,2.274,0.158l0.323-0.317c0.548-0.539,0.608-1.402,0.141-2.011l-7.935-10.214l7.726,6.43
								c0.728,0.645,1.865,0.451,2.338-0.399l0.095-0.171c0.324-0.582,0.232-1.308-0.228-1.79l-7.55-7.252l4.741,2.834
								c0.872,0.706,2.182,0.259,2.439-0.833l0,0c0.122-0.52-0.036-1.065-0.418-1.438l-19.264-18.033l-3.937,4.503
								C417.39,246.413,416.427,248.467,416.076,250.664z"/>
						</g>
					</g>
				</g>
				<path style="fill:#4479FA;" d="M339.756,151.356c0,0-13.157-1.275-13.329,22.493c-0.173,23.829,7.347,35.061,13.178,72.435
					c0,0,22.314-2.735,38.69-14.81C378.295,231.474,379.313,143.937,339.756,151.356z"/>
				<g>
					<g>
						<path style="fill:#ECC696;" d="M337.097,183.199l-31.118,29.786c-4.667,4.238-11.937,3.68-15.902-1.221l0,0
							c-3.627-4.482-3.164-11.006,1.058-14.933l33.136-32.407L337.097,183.199z"/>
						<g>
							<path style="fill:#4479FA;" d="M328.612,202.085c0,0-10.854-0.375-22.013-22.504l21.882-23.155
								c6.111-6.466,16.454-6.291,22.343,0.378l0,0c4.878,5.525,5.067,13.761,0.446,19.503L328.612,202.085z"/>
							
								<line style="fill:none;stroke:#000000;stroke-width:0.5111;stroke-linecap:round;stroke-linejoin:round;stroke-miterlimit:10;" x1="331.617" y1="198.666" x2="346.577" y2="181.645"/>
						</g>
					</g>
					<g>
						<g>
							<path style="fill:#ECC696;" d="M305.434,197.163l-44.34-33.553l-5.822,9.131l35.041,39.348
								c4.273,5.027,12.04,5.001,16.28-0.054l0,0C310.32,207.59,309.805,200.978,305.434,197.163z"/>
						</g>
						<g>
							<path style="fill:#ECC696;" d="M266.967,172.877c-1.671,5.619-7.093,5.394-17.754,2.406c-5.645-1.582-7.692-5.582-6.021-11.2
								c1.671-5.618,7.58-8.819,13.199-7.148C262.01,158.606,268.638,167.259,266.967,172.877z"/>
							<path style="fill:#ECC696;" d="M258.346,157.734l-13.549-7.877c-0.891-0.605-2.144-0.389-2.761,0.476l0,0
								c-0.534,0.75-0.414,1.75,0.285,2.36l10.517,8.89L258.346,157.734z"/>
						</g>
					</g>
				</g>
			</g>
		</g>
	</g>
</g>
</svg>
