<?xml version="1.0" encoding="utf-8"?>
<!-- Generator: Adobe Illustrator 27.5.0, SVG Export Plug-In . SVG Version: 6.00 Build 0)  -->
<svg version="1.1" xmlns="http://www.w3.org/2000/svg" xmlns:xlink="http://www.w3.org/1999/xlink" x="0px" y="0px"
	 viewBox="0 0 500 500" style="enable-background:new 0 0 500 500;" xml:space="preserve">
<g id="BACKGROUND">
	<rect x="1.718" y="0.389" style="fill:#FFFFFF;" width="497.683" height="499.015"/>
</g>
<g id="OBJECTS">
	<g>
		<path style="opacity:0.33;fill:#ECDFEF;" d="M429.35,145.402c0-33.895-27.477-61.372-61.372-61.372
			c-13.592,0-26.146,4.426-36.315,11.905c-25.696-17.912-56.934-28.425-90.632-28.425c-87.639,0-158.684,71.045-158.684,158.684
			c0,33.367,10.307,64.321,27.898,89.872c-8.141,10.414-13.007,23.513-13.007,37.756c0,33.895,27.477,61.372,61.372,61.372
			c23.574,0,44.033-13.299,54.313-32.798c9.123,1.631,18.516,2.482,28.108,2.482c87.639,0,158.684-71.045,158.684-158.684
			c0-9.184-0.79-18.183-2.288-26.94C416.45,188.829,429.35,168.624,429.35,145.402z"/>
		<g>
			<path style="fill:#FFBA1F;" d="M376.819,360.841c26.439-0.253,48.107,21.005,48.359,47.444c0.008,0.885-0.025,1.813-0.016,2.699
				l-95.76,0.916c-0.008-0.885-0.06-1.813-0.068-2.698C329.081,382.763,350.339,361.095,376.819,360.841z"/>
			<g>
				<g>
					<path style="fill:#F96E6E;" d="M312.083,409.52c0,0,8.011-88.625,67.095-97.638
						C379.178,311.882,382.683,378.476,312.083,409.52z"/>
					<line style="fill:none;stroke:#FFD7D7;stroke-miterlimit:10;" x1="379.178" y1="311.882" x2="312.083" y2="409.52"/>
					<polyline style="fill:none;stroke:#FFD7D7;stroke-miterlimit:10;" points="357.314,320.06 361.319,337.918 376.341,335.916 
											"/>
					<polyline style="fill:none;stroke:#FFD7D7;stroke-miterlimit:10;" points="341.959,333.078 347.967,356.945 369.665,355.61 
											"/>
					<polyline style="fill:none;stroke:#FFD7D7;stroke-miterlimit:10;" points="329.441,351.271 338.287,370.965 358.148,374.136 
											"/>
					<polyline style="fill:none;stroke:#FFD7D7;stroke-miterlimit:10;" points="321.096,370.298 327.939,386.654 343.628,389.992 
											"/>
					<polyline style="fill:none;stroke:#FFD7D7;stroke-miterlimit:10;" points="315.922,387.989 320.262,397.503 329.441,400.173 
											"/>
				</g>
				<g>
					<path style="fill:#EC4545;" d="M313.726,407.843c0,0,62.571-63.273,113.886-32.632
						C427.612,375.211,387.944,428.815,313.726,407.843z"/>
					<line style="fill:none;stroke:#FFD7D7;stroke-miterlimit:10;" x1="427.612" y1="375.211" x2="313.726" y2="407.843"/>
					<polyline style="fill:none;stroke:#FFD7D7;stroke-miterlimit:10;" points="405.542,367.608 397.269,383.934 410.131,391.947 
											"/>
					<polyline style="fill:none;stroke:#FFD7D7;stroke-miterlimit:10;" points="385.412,367.881 374.861,390.116 392.45,402.892 
											"/>
					<polyline style="fill:none;stroke:#FFD7D7;stroke-miterlimit:10;" points="364.18,373.951 358.473,394.773 371.777,409.857 
											"/>
					<polyline style="fill:none;stroke:#FFD7D7;stroke-miterlimit:10;" points="345.636,383.319 340.507,400.292 350.487,412.849 
											"/>
					<polyline style="fill:none;stroke:#FFD7D7;stroke-miterlimit:10;" points="330.387,393.676 327.682,403.776 333.064,411.677 
											"/>
				</g>
				<g>
					<path style="fill:#F99191;" d="M313.175,405.968c0,0-39.494-79.742,6.165-118.308
						C319.341,287.659,357.137,342.6,313.175,405.968z"/>
					<line style="fill:none;stroke:#FFD7D7;stroke-miterlimit:10;" x1="319.341" y1="287.659" x2="313.175" y2="405.968"/>
					<polyline style="fill:none;stroke:#FFD7D7;stroke-miterlimit:10;" points="304.976,306.06 317.725,319.191 329.484,309.632 
											"/>
					<polyline style="fill:none;stroke:#FFD7D7;stroke-miterlimit:10;" points="298.69,325.184 316.287,342.391 334.087,329.911 
											"/>
					<polyline style="fill:none;stroke:#FFD7D7;stroke-miterlimit:10;" points="297.527,347.236 315.362,359.403 333.952,351.725 
											"/>
					<polyline style="fill:none;stroke:#FFD7D7;stroke-miterlimit:10;" points="300.358,367.819 314.741,378.187 329.861,372.832 
											"/>
					<polyline style="fill:none;stroke:#FFD7D7;stroke-miterlimit:10;" points="305.194,385.606 313.866,391.448 323.088,388.927 
											"/>
				</g>
			</g>
			<g>
				<g>
					<path style="fill:#F96E6E;" d="M214.174,323.428c0,0-88.259-11.359-95.029-70.741
						C119.145,252.687,185.824,251.704,214.174,323.428z"/>
					<line style="fill:none;stroke:#FFD7D7;stroke-miterlimit:10;" x1="119.145" y1="252.687" x2="214.174" y2="323.428"/>
					<polyline style="fill:none;stroke:#FFD7D7;stroke-miterlimit:10;" points="126.49,274.845 144.487,271.518 143.054,256.432 
											"/>
					<polyline style="fill:none;stroke:#FFD7D7;stroke-miterlimit:10;" points="138.918,290.682 162.995,285.581 162.482,263.848 
											"/>
					<polyline style="fill:none;stroke:#FFD7D7;stroke-miterlimit:10;" points="156.623,303.879 176.639,295.785 180.559,276.057 
											"/>
					<polyline style="fill:none;stroke:#FFD7D7;stroke-miterlimit:10;" points="175.321,312.938 191.925,306.719 195.854,291.167 
											"/>
					<polyline style="fill:none;stroke:#FFD7D7;stroke-miterlimit:10;" points="192.804,318.778 202.475,314.801 205.491,305.729 
											"/>
				</g>
				<g>
					<path style="fill:#EC4545;" d="M212.561,321.723c0,0-60.86-64.92-28.3-115.039
						C184.261,206.684,236.326,248.352,212.561,321.723z"/>
					<line style="fill:none;stroke:#FFD7D7;stroke-miterlimit:10;" x1="184.261" y1="206.684" x2="212.561" y2="321.723"/>
					<polyline style="fill:none;stroke:#FFD7D7;stroke-miterlimit:10;" points="175.828,228.451 191.83,237.336 200.323,224.786 
											"/>
					<polyline style="fill:none;stroke:#FFD7D7;stroke-miterlimit:10;" points="175.34,248.576 197.16,259.961 210.592,242.869 
											"/>
					<polyline style="fill:none;stroke:#FFD7D7;stroke-miterlimit:10;" points="180.602,270.023 201.193,276.514 216.769,263.79 
											"/>
					<polyline style="fill:none;stroke:#FFD7D7;stroke-miterlimit:10;" points="189.262,288.909 206.028,294.675 218.954,285.178 
											"/>
					<polyline style="fill:none;stroke:#FFD7D7;stroke-miterlimit:10;" points="199.034,304.538 209.025,307.624 217.124,302.544 
											"/>
				</g>
				<g>
					<path style="fill:#F99191;" d="M210.666,322.203c0,0-81.18,36.448-117.991-10.637
						C92.675,311.565,149.007,275.875,210.666,322.203z"/>
					<line style="fill:none;stroke:#FFD7D7;stroke-miterlimit:10;" x1="92.675" y1="311.565" x2="210.666" y2="322.203"/>
					<polyline style="fill:none;stroke:#FFD7D7;stroke-miterlimit:10;" points="110.519,326.616 124.123,314.373 115.016,302.26 
											"/>
					<polyline style="fill:none;stroke:#FFD7D7;stroke-miterlimit:10;" points="129.392,333.621 147.252,316.687 135.455,298.428 
											"/>
					<polyline style="fill:none;stroke:#FFD7D7;stroke-miterlimit:10;" points="151.385,335.617 164.217,318.255 157.248,299.388 
											"/>
					<polyline style="fill:none;stroke:#FFD7D7;stroke-miterlimit:10;" points="172.06,333.568 182.964,319.587 178.185,304.275 
											"/>
					<polyline style="fill:none;stroke:#FFD7D7;stroke-miterlimit:10;" points="190.017,329.408 196.183,320.963 194.012,311.652 
											"/>
				</g>
			</g>
			<g>
				<g>
					<path style="fill:#44004E;" d="M305.507,412.069h-86.542c-7.404,0-13.407-6.002-13.407-13.407V211.919
						c0-7.404,6.002-13.407,13.407-13.407h86.542c7.404,0,13.407,6.002,13.407,13.407v186.743
						C318.914,406.067,312.911,412.069,305.507,412.069z"/>
					<path style="fill:#FAF0FC;" d="M313.775,384.056H210.968c-0.235,0-0.426-0.19-0.426-0.426V217.088
						c0-0.235,0.191-0.426,0.426-0.426h102.806c0.235,0,0.426,0.191,0.426,0.426V383.63
						C314.2,383.865,314.01,384.056,313.775,384.056z"/>
					<rect x="258.9" y="206.291" style="opacity:0.46;fill:#FAF0FC;" width="26.717" height="2.284"/>
					<rect x="245.665" y="206.245" style="opacity:0.46;fill:#FAF0FC;" width="10.503" height="2.237"/>
					<ellipse style="fill:#FAF0FC;" cx="261.84" cy="398.041" rx="8.445" ry="8.132"/>
				</g>
				<g>
					<g>
						
							<ellipse transform="matrix(0.7071 -0.7071 0.7071 0.7071 -15.4818 223.157)" style="fill:#44004E;" cx="261.633" cy="130.267" rx="23.598" ry="23.598"/>
						<polygon style="fill:#44004E;" points="243.592,138.85 238.506,169.848 284.76,168.395 276.527,138.124 						"/>
						<path style="fill:#EC4545;" d="M305.003,199.021l-11.736-0.029l-5.258-0.011l-6.8-0.017l-8.929-0.023l-6.547-0.017
							l-38.562-0.092l-7.64-0.017l-1.427-0.006c0.328-1.904,0.886-3.912,1.611-5.96c0.736-2.088,1.651-4.217,2.658-6.311
							c1.45-3.014,3.112-5.954,4.769-8.601c1.312-2.1,2.623-4.016,3.826-5.632c1.789-2.411,3.337-4.159,4.303-4.902
							c0.512-0.391,1.266-0.846,2.186-1.34c1.657-0.886,3.849-1.898,6.098-2.876c5.224-2.272,10.775-4.372,10.775-4.372
							s12.352-0.42,15.493,0c0.84,0.109,2.738,0.794,5.074,1.732c1.916,0.765,4.125,1.709,6.282,2.652
							c2.687,1.174,5.287,2.347,7.134,3.193c1.622,0.736,2.658,1.22,2.658,1.22c1.214,0.725,2.365,1.898,3.452,3.377
							c2.456,3.32,4.574,8.175,6.259,12.91c0.742,2.111,1.404,4.2,1.973,6.115c1.254,4.246,2.048,7.663,2.278,8.693
							C304.98,198.912,305.003,199.021,305.003,199.021z"/>
						<path style="opacity:0.4;fill:#44004E;" d="M243.555,163.186c-2.249,0.978-4.441,1.99-6.098,2.876
							c0.685,0.794,1.099,1.829,1.099,2.957c0,2.485-2.014,4.505-4.505,4.505c-1.191,0-2.278-0.466-3.084-1.22
							c-1.202,1.617-2.514,3.532-3.826,5.632c1.916,1.559,4.372,2.491,7.036,2.491c6.173,0,11.172-5.005,11.172-11.172
							C245.35,167.012,244.694,164.929,243.555,163.186z"/>
						<path style="opacity:0.4;fill:#44004E;" d="M290.971,167.61c0,0-1.035-0.483-2.658-1.22c0.017,0.144,0.023,0.299,0.023,0.449
							c0,2.485-2.014,4.505-4.505,4.505c-2.485,0-4.505-2.019-4.505-4.505c0-1.496,0.731-2.825,1.853-3.642
							c-2.157-0.943-4.366-1.887-6.282-2.652c-1.329,1.835-2.111,4.09-2.111,6.53c0,6.167,5.005,11.172,11.172,11.172
							c4.798,0,8.882-3.02,10.465-7.26C293.336,169.508,292.185,168.335,290.971,167.61z"/>
						<path style="opacity:0.4;fill:#44004E;" d="M276.871,188.603c-5.88,0-10.706,4.545-11.138,10.321l6.547,0.017
							c0.293-2.209,2.18-3.912,4.464-3.912c2.296,0,4.188,1.714,4.464,3.935l6.8,0.017
							C287.606,193.176,282.773,188.603,276.871,188.603z"/>
						<path style="opacity:0.4;fill:#44004E;" d="M251.166,179.703c-5.218,0-9.446,4.223-9.446,9.446
							c0,5.212,4.228,9.446,9.446,9.446c5.218,0,9.446-4.234,9.446-9.446C260.613,183.926,256.384,179.703,251.166,179.703z
							 M251.057,192.756c-2.1,0-3.809-1.709-3.809-3.809c0-2.106,1.709-3.814,3.809-3.814c2.105,0,3.808,1.709,3.808,3.814
							C254.866,191.048,253.163,192.756,251.057,192.756z"/>
						<path style="opacity:0.4;fill:#44004E;" d="M263.61,169.348c-2.56,0-4.631,2.071-4.631,4.631c0,2.554,2.071,4.631,4.631,4.631
							c2.56,0,4.631-2.077,4.631-4.631C268.241,171.419,266.17,169.348,263.61,169.348z M263.558,175.751
							c-1.03,0-1.87-0.84-1.87-1.87c0-1.036,0.84-1.87,1.87-1.87c1.03,0,1.864,0.834,1.864,1.87
							C265.422,174.911,264.588,175.751,263.558,175.751z"/>
						<path style="opacity:0.4;fill:#44004E;" d="M287.088,181.941c-1.605,0-2.905,1.3-2.905,2.911c0,1.599,1.3,2.905,2.905,2.905
							c1.605,0,2.905-1.306,2.905-2.905C289.993,183.241,288.693,181.941,287.088,181.941z M287.053,185.962
							c-0.644,0-1.168-0.529-1.168-1.174c0-0.65,0.523-1.174,1.168-1.174c0.65,0,1.174,0.523,1.174,1.174
							C288.227,185.433,287.704,185.962,287.053,185.962z"/>
						<path style="opacity:0.4;fill:#44004E;" d="M235.674,186.486c-1.605,0-2.905,1.3-2.905,2.905c0,1.605,1.3,2.905,2.905,2.905
							c1.605,0,2.905-1.3,2.905-2.905C238.579,187.786,237.279,186.486,235.674,186.486z M235.639,190.501
							c-0.644,0-1.168-0.523-1.168-1.174c0-0.644,0.523-1.174,1.168-1.174c0.65,0,1.174,0.529,1.174,1.174
							C236.813,189.978,236.289,190.501,235.639,190.501z"/>
						<path style="opacity:0.4;fill:#44004E;" d="M222.373,186.537c-1.007,2.094-1.922,4.223-2.658,6.311
							c0.644,0.782,1.035,1.784,1.035,2.876c0,1.197-0.466,2.284-1.219,3.089l7.64,0.017c0.242-0.915,0.374-1.875,0.374-2.871
							C227.545,191.997,225.485,188.516,222.373,186.537z"/>
						<path style="opacity:0.4;fill:#44004E;" d="M304.934,198.705c-0.466,0.167-0.961,0.253-1.484,0.253
							c-2.485,0-4.505-2.019-4.505-4.505c0-2.221,1.605-4.067,3.711-4.441c-0.57-1.916-1.231-4.004-1.973-6.115
							c-4.769,1.277-8.279,5.621-8.279,10.793c0,1.525,0.305,2.98,0.863,4.303l11.736,0.029
							C305.003,199.021,304.98,198.912,304.934,198.705z"/>
						<path style="fill:#F99345;" d="M221.383,198.042c0,0,3.909-9.353,12.005-7.538c8.097,1.815,9.493,8.515,9.493,8.515h-22.056
							L221.383,198.042z"/>
						<path style="fill:#F6B6A6;" d="M228.224,196.367c0,0-3.071,0.14-3.909,2.233c-0.838,2.094-0.977,4.746,5.723,4.188
							c6.701-0.558,9.493-2.234,7.119-5.025C234.785,194.971,228.224,196.367,228.224,196.367z"/>
						<path style="fill:#F99345;" d="M278.06,197.623c0,0,3.909-9.353,12.005-7.538c8.097,1.815,9.493,8.515,9.493,8.515h-22.056
							L278.06,197.623z"/>
						<path style="fill:#F6B6A6;" d="M284.9,195.948c0,0-3.071,0.14-3.909,2.234c-0.837,2.094-0.977,4.746,5.724,4.188
							c6.701-0.558,9.493-2.234,7.12-5.026C291.461,194.552,284.9,195.948,284.9,195.948z"/>
						<path style="fill:#F99345;" d="M252.234,159.42c0,0,2.42,10.144,10.423,9.306c8.003-0.838,10.609-8.841,10.609-8.841
							l-3.443-1.07h-15.495L252.234,159.42z"/>
						<path style="fill:#F6B6A6;" d="M255.678,149.462l-1.349,9.353c0,0,2.28,7.212,7.957,6.933
							c5.677-0.279,8.469-6.608,8.469-6.608l-1.768-10.423l-6.049-3.35L255.678,149.462z"/>
						<path style="fill:#F6B6A6;" d="M250.373,129.267c0,0-3.909,22.522,11.726,22.056c15.635-0.465,12.75-20.381,12.75-20.381
							s-3.536-7.166-5.956-9.958c-2.42-2.792-5.212-3.443-9.027-2.978C256.05,118.472,250.373,129.267,250.373,129.267z"/>
						<path style="fill:#44004E;" d="M248.512,132.245c0,0,7.073,0.465,10.051-6.328l-0.651,3.722c0,0,7.166-4.467,6.701-9.772
							c0,0,5.91,11.214,11.121,10.982c0,0,0.302-12.447-8.073-14.751c-8.376-2.303-11.587,0.14-13.192,1.047
							C252.863,118.053,247.93,127.662,248.512,132.245z"/>
						<path style="fill:#F6B6A6;" d="M253.126,136.802c0,2.46-1.994,4.454-4.454,4.454c-2.46,0-4.454-1.994-4.454-4.454
							c0-2.46,1.994-4.454,4.454-4.454C251.132,132.348,253.126,134.342,253.126,136.802z"/>
						<path style="fill:#F6B6A6;" d="M280.83,134.92c0,2.46-1.994,4.454-4.454,4.454c-2.46,0-4.454-1.994-4.454-4.454
							c0-2.46,1.994-4.454,4.454-4.454C278.835,130.466,280.83,132.46,280.83,134.92z"/>
						<path style="fill:#36203A;" d="M258.447,133.967c0,0.848-0.688,1.535-1.536,1.535c-0.848,0-1.536-0.688-1.536-1.535
							c0-0.848,0.688-1.536,1.536-1.536C257.759,132.431,258.447,133.119,258.447,133.967z"/>
						<path style="fill:#36203A;" d="M269.126,134.281c0,0.752-0.609,1.361-1.361,1.361c-0.752,0-1.361-0.609-1.361-1.361
							c0-0.752,0.609-1.361,1.361-1.361C268.516,132.92,269.126,133.529,269.126,134.281z"/>
						<path style="fill:#231F20;" d="M259.521,143.654l4.876-1.59c0,0,1.378,2.544-1.908,3.392
							C259.202,146.304,259.521,143.654,259.521,143.654z"/>
						<g>
							<g>
								<path style="fill:#36203A;" d="M268.424,139.139c-2.999,0-5.439-2.44-5.439-5.439s2.44-5.439,5.439-5.439
									s5.439,2.44,5.439,5.439S271.423,139.139,268.424,139.139z M268.424,128.704c-2.755,0-4.997,2.242-4.997,4.997
									s2.242,4.997,4.997,4.997s4.997-2.242,4.997-4.997S271.179,128.704,268.424,128.704z"/>
							</g>
							<g>
								<path style="fill:#36203A;" d="M256.439,139.1c-2.999,0-5.439-2.44-5.439-5.439s2.44-5.439,5.439-5.439
									s5.439,2.44,5.439,5.439S259.438,139.1,256.439,139.1z M256.439,128.665c-2.755,0-4.997,2.241-4.997,4.997
									c0,2.755,2.242,4.997,4.997,4.997s4.997-2.242,4.997-4.997C261.435,130.906,259.194,128.665,256.439,128.665z"/>
							</g>
							<g>
								
									<rect x="262.297" y="132.824" transform="matrix(0.0288 -0.9996 0.9996 0.0288 121.3326 392.248)" style="fill:#36203A;" width="0.442" height="1.723"/>
							</g>
						</g>
						<path style="opacity:0.52;fill:#D86C56;" d="M257.446,141.412c0,0.488-0.854,0.884-1.908,0.884
							c-1.054,0-1.908-0.396-1.908-0.884c0-0.488,0.854-0.884,1.908-0.884C256.592,140.528,257.446,140.924,257.446,141.412z"/>
						<path style="opacity:0.52;fill:#D86C56;" d="M271.243,141.575c0,0.463-0.938,0.838-2.094,0.838
							c-1.156,0-2.094-0.375-2.094-0.838s0.938-0.838,2.094-0.838C270.305,140.737,271.243,141.112,271.243,141.575z"/>
						<path style="opacity:0.52;fill:#D86C56;" d="M249.768,136.573c0,0-1.861-1.536-2.652-0.698
							c-0.791,0.838-0.372,1.582-0.372,1.582s0.14-1.21,0.791-0.745C248.186,137.178,249.443,138.574,249.768,136.573z"/>
						<path style="opacity:0.52;fill:#D86C56;" d="M275.78,135.084c0,0,1.823-1.536,2.598-0.698
							c0.775,0.838,0.365,1.582,0.365,1.582s-0.137-1.21-0.775-0.745C277.33,135.689,276.099,137.085,275.78,135.084z"/>
						<path style="fill:#DD988A;" d="M255.678,149.741c0,0,6.887,4.653,13.215-0.372c0,0-4.56,10.982-14.704,9.772L255.678,149.741z
							"/>
					</g>
					<polygon style="opacity:0.51;fill:#2B0033;" points="242.688,144.335 251.529,150.27 242.082,148.453 					"/>
					<polygon style="opacity:0.51;fill:#2B0033;" points="278.901,146.273 273.451,150.997 279.264,148.938 					"/>
				</g>
			</g>
			<rect x="217.854" y="226.191" style="fill:#ECDFEF;" width="86.459" height="45.582"/>
			<rect x="218.232" y="322.643" style="fill:#ECDFEF;" width="86.459" height="45.582"/>
			<rect x="217.854" y="282.997" style="fill:#ECDFEF;" width="86.459" height="4.662"/>
			<rect x="217.854" y="282.997" style="fill:#D9C5DD;" width="46.421" height="4.622"/>
			<rect x="217.57" y="296.047" style="fill:#ECDFEF;" width="86.459" height="4.662"/>
			<rect x="217.57" y="296.047" style="fill:#D9C5DD;" width="67.978" height="4.541"/>
			<rect x="217.854" y="307.678" style="fill:#ECDFEF;" width="86.459" height="4.662"/>
			<rect x="217.854" y="307.678" style="fill:#D9C5DD;" width="46.792" height="4.871"/>
			<g>
				<circle style="fill:#EDA515;" cx="202.777" cy="374.467" r="39.148"/>
				
					<ellipse transform="matrix(0.7071 -0.7071 0.7071 0.7071 -201.9863 257.1347)" style="fill:#FFBA1F;" cx="209.396" cy="372.386" rx="39.148" ry="39.148"/>
				<g>
					<path style="fill:#FAF0FC;" d="M219.399,384.949c-1.531,1.557-3.614,2.667-6.247,3.328c-1.207,0.303-2.078,1.35-2.078,2.595
						v0.455c0,1.502-1.217,2.719-2.719,2.719h-0.354c-1.501,0-2.719-1.217-2.719-2.719l0,0c0-1.363-1.014-2.499-2.364-2.688
						c-1.553-0.218-3.05-0.547-4.489-0.987c-1.118-0.342-2.137-0.725-3.056-1.149c-1.331-0.615-1.888-2.213-1.292-3.552l0.938-2.106
						c0.62-1.392,2.255-1.959,3.639-1.323c0.877,0.402,1.814,0.756,2.812,1.062c1.994,0.611,3.957,0.917,5.887,0.917
						c3.667,0,5.501-0.917,5.501-2.751c0-0.965-0.524-1.68-1.569-2.148c-1.046-0.466-2.727-0.956-5.044-1.471
						c-2.542-0.547-4.665-1.134-6.37-1.762c-1.706-0.627-3.169-1.633-4.391-3.016c-1.224-1.383-1.834-3.249-1.834-5.598
						c0-2.766,0.997-5.139,2.992-7.118c1.595-1.583,3.758-2.676,6.486-3.281c1.243-0.276,2.152-1.338,2.152-2.611v-0.341
						c0-1.502,1.217-2.719,2.719-2.719h0.354c1.501,0,2.719,1.217,2.719,2.719v0.106c0,1.338,0.978,2.458,2.297,2.679
						c1.02,0.171,2.016,0.395,2.988,0.673c0.723,0.207,1.411,0.44,2.066,0.7c1.394,0.553,2.036,2.168,1.462,3.553l-0.869,2.093
						c-0.569,1.371-2.14,2.041-3.514,1.479c-2.367-0.97-4.68-1.454-6.939-1.454c-1.898,0-3.282,0.282-4.15,0.844
						c-0.868,0.563-1.303,1.296-1.303,2.196c0,0.901,0.514,1.576,1.544,2.026c1.029,0.451,2.686,0.918,4.971,1.4
						c2.574,0.547,4.705,1.133,6.394,1.762c1.689,0.627,3.152,1.625,4.391,2.991c1.239,1.368,1.858,3.226,1.858,5.573
						C222.27,380.695,221.313,383.003,219.399,384.949z"/>
				</g>
			</g>
			<g>
				<circle style="fill:#EDA515;" cx="194.18" cy="320.866" r="19.068"/>
				<circle style="fill:#FFBA1F;" cx="197.404" cy="319.852" r="19.068"/>
				<g>
					<path style="fill:#FAF0FC;" d="M202.276,325.971c-0.746,0.759-1.76,1.299-3.042,1.621c-0.588,0.148-1.012,0.658-1.012,1.264
						v0.222c0,0.731-0.593,1.324-1.324,1.324h-0.172c-0.731,0-1.324-0.593-1.324-1.324l0,0c0-0.664-0.494-1.217-1.151-1.309
						c-0.757-0.106-1.485-0.267-2.186-0.481c-0.545-0.166-1.041-0.353-1.489-0.56c-0.648-0.299-0.92-1.078-0.629-1.73l0.457-1.026
						c0.302-0.678,1.098-0.954,1.773-0.645c0.427,0.196,0.883,0.368,1.369,0.517c0.971,0.298,1.927,0.447,2.868,0.447
						c1.786,0,2.68-0.447,2.68-1.34c0-0.47-0.255-0.818-0.764-1.046c-0.509-0.227-1.328-0.466-2.457-0.717
						c-1.238-0.266-2.272-0.552-3.103-0.858c-0.831-0.306-1.543-0.795-2.138-1.469c-0.596-0.673-0.894-1.582-0.894-2.727
						c0-1.347,0.486-2.503,1.458-3.467c0.777-0.771,1.83-1.303,3.159-1.598c0.605-0.134,1.048-0.652,1.048-1.272v-0.166
						c0-0.731,0.593-1.324,1.324-1.324h0.172c0.731,0,1.324,0.593,1.324,1.324v0.052c0,0.651,0.476,1.197,1.119,1.305
						c0.497,0.083,0.982,0.193,1.455,0.328c0.352,0.101,0.688,0.214,1.007,0.341c0.679,0.269,0.992,1.056,0.712,1.731l-0.423,1.02
						c-0.277,0.668-1.042,0.994-1.712,0.72c-1.153-0.472-2.28-0.708-3.38-0.708c-0.925,0-1.598,0.137-2.021,0.411
						c-0.423,0.274-0.634,0.631-0.634,1.069c0,0.439,0.25,0.768,0.752,0.987c0.501,0.22,1.308,0.447,2.421,0.682
						c1.254,0.267,2.292,0.552,3.115,0.858c0.822,0.306,1.535,0.791,2.139,1.457c0.603,0.666,0.905,1.571,0.905,2.715
						C203.674,323.899,203.208,325.023,202.276,325.971z"/>
				</g>
			</g>
			<g>
				<circle style="fill:#EDA515;" cx="172.741" cy="335.751" r="12.88"/>
				
					<ellipse transform="matrix(0.9251 -0.3797 0.3797 0.9251 -114.1239 91.5086)" style="fill:#FFBA1F;" cx="174.919" cy="335.067" rx="12.88" ry="12.88"/>
				<g>
					<path style="fill:#FAF0FC;" d="M178.21,339.2c-0.504,0.512-1.189,0.877-2.055,1.095c-0.397,0.1-0.684,0.444-0.684,0.854v0.15
						c0,0.494-0.4,0.895-0.895,0.895h-0.116c-0.494,0-0.895-0.401-0.895-0.895l0,0c0-0.449-0.334-0.822-0.778-0.885
						c-0.511-0.072-1.003-0.18-1.477-0.325c-0.368-0.112-0.703-0.238-1.005-0.378c-0.438-0.202-0.621-0.728-0.425-1.169l0.309-0.693
						c0.204-0.458,0.742-0.645,1.198-0.435c0.288,0.132,0.597,0.249,0.925,0.349c0.656,0.201,1.302,0.302,1.937,0.302
						c1.206,0,1.81-0.302,1.81-0.905c0-0.318-0.172-0.553-0.516-0.707c-0.344-0.153-0.897-0.315-1.659-0.484
						c-0.836-0.18-1.535-0.373-2.096-0.579c-0.561-0.206-1.043-0.537-1.445-0.992c-0.403-0.455-0.604-1.069-0.604-1.842
						c0-0.91,0.328-1.691,0.984-2.342c0.525-0.521,1.236-0.88,2.134-1.08c0.409-0.091,0.708-0.44,0.708-0.859v-0.112
						c0-0.494,0.4-0.895,0.895-0.895h0.116c0.494,0,0.895,0.4,0.895,0.895v0.035c0,0.44,0.322,0.809,0.756,0.881
						c0.335,0.056,0.663,0.13,0.983,0.221c0.238,0.068,0.464,0.145,0.68,0.23c0.459,0.182,0.67,0.714,0.481,1.169l-0.286,0.689
						c-0.187,0.451-0.704,0.672-1.156,0.487c-0.779-0.319-1.54-0.478-2.283-0.478c-0.625,0-1.08,0.093-1.366,0.278
						c-0.286,0.185-0.429,0.426-0.429,0.723c0,0.296,0.169,0.519,0.508,0.667c0.339,0.148,0.884,0.302,1.635,0.461
						c0.847,0.18,1.548,0.373,2.104,0.579c0.556,0.206,1.037,0.535,1.445,0.984c0.408,0.45,0.611,1.061,0.611,1.834
						C179.155,337.8,178.84,338.56,178.21,339.2z"/>
				</g>
			</g>
			<g>
				
					<ellipse transform="matrix(0.9251 -0.3797 0.3797 0.9251 -138.6034 97.1862)" style="fill:#EDA515;" cx="177.073" cy="399.963" rx="12.88" ry="12.88"/>
				<circle style="fill:#FFBA1F;" cx="179.25" cy="399.279" r="12.88"/>
				<g>
					<path style="fill:#FAF0FC;" d="M182.541,403.412c-0.504,0.512-1.189,0.877-2.055,1.095c-0.397,0.1-0.684,0.444-0.684,0.854
						v0.15c0,0.494-0.4,0.895-0.894,0.895h-0.116c-0.494,0-0.895-0.4-0.895-0.895l0,0c0-0.448-0.334-0.822-0.778-0.884
						c-0.511-0.072-1.003-0.18-1.477-0.325c-0.368-0.112-0.703-0.238-1.005-0.378c-0.438-0.202-0.621-0.728-0.425-1.169l0.309-0.693
						c0.204-0.458,0.742-0.644,1.197-0.435c0.288,0.132,0.597,0.249,0.925,0.349c0.656,0.201,1.302,0.302,1.937,0.302
						c1.206,0,1.81-0.302,1.81-0.905c0-0.318-0.172-0.553-0.516-0.707c-0.344-0.153-0.897-0.315-1.659-0.484
						c-0.836-0.18-1.535-0.373-2.096-0.58c-0.561-0.206-1.043-0.537-1.445-0.992c-0.403-0.455-0.604-1.069-0.604-1.842
						c0-0.91,0.328-1.691,0.984-2.342c0.525-0.521,1.236-0.881,2.134-1.079c0.409-0.091,0.708-0.44,0.708-0.859v-0.112
						c0-0.494,0.4-0.895,0.895-0.895h0.116c0.494,0,0.894,0.401,0.894,0.895v0.035c0,0.44,0.322,0.809,0.756,0.881
						c0.335,0.056,0.663,0.13,0.983,0.221c0.238,0.068,0.464,0.145,0.68,0.23c0.459,0.182,0.67,0.713,0.481,1.169l-0.286,0.689
						c-0.187,0.451-0.704,0.672-1.156,0.487c-0.779-0.319-1.54-0.479-2.283-0.479c-0.625,0-1.08,0.093-1.366,0.278
						c-0.286,0.185-0.429,0.426-0.429,0.722c0,0.296,0.169,0.519,0.508,0.667c0.339,0.148,0.884,0.302,1.635,0.461
						c0.847,0.18,1.548,0.373,2.104,0.58c0.556,0.206,1.037,0.534,1.445,0.984c0.408,0.45,0.611,1.061,0.611,1.834
						C183.486,402.012,183.171,402.771,182.541,403.412z"/>
				</g>
			</g>
			<g>
				
					<ellipse transform="matrix(0.9251 -0.3797 0.3797 0.9251 -138.6034 97.1862)" style="fill:#EDA515;" cx="177.073" cy="399.963" rx="12.88" ry="12.88"/>
				<circle style="fill:#FFBA1F;" cx="179.25" cy="399.279" r="12.88"/>
				<g>
					<path style="fill:#FAF0FC;" d="M182.541,403.412c-0.504,0.512-1.189,0.877-2.055,1.095c-0.397,0.1-0.684,0.444-0.684,0.854
						v0.15c0,0.494-0.4,0.895-0.894,0.895h-0.116c-0.494,0-0.895-0.4-0.895-0.895l0,0c0-0.448-0.334-0.822-0.778-0.884
						c-0.511-0.072-1.003-0.18-1.477-0.325c-0.368-0.112-0.703-0.238-1.005-0.378c-0.438-0.202-0.621-0.728-0.425-1.169l0.309-0.693
						c0.204-0.458,0.742-0.644,1.197-0.435c0.288,0.132,0.597,0.249,0.925,0.349c0.656,0.201,1.302,0.302,1.937,0.302
						c1.206,0,1.81-0.302,1.81-0.905c0-0.318-0.172-0.553-0.516-0.707c-0.344-0.153-0.897-0.315-1.659-0.484
						c-0.836-0.18-1.535-0.373-2.096-0.58c-0.561-0.206-1.043-0.537-1.445-0.992c-0.403-0.455-0.604-1.069-0.604-1.842
						c0-0.91,0.328-1.691,0.984-2.342c0.525-0.521,1.236-0.881,2.134-1.079c0.409-0.091,0.708-0.44,0.708-0.859v-0.112
						c0-0.494,0.4-0.895,0.895-0.895h0.116c0.494,0,0.894,0.401,0.894,0.895v0.035c0,0.44,0.322,0.809,0.756,0.881
						c0.335,0.056,0.663,0.13,0.983,0.221c0.238,0.068,0.464,0.145,0.68,0.23c0.459,0.182,0.67,0.713,0.481,1.169l-0.286,0.689
						c-0.187,0.451-0.704,0.672-1.156,0.487c-0.779-0.319-1.54-0.479-2.283-0.479c-0.625,0-1.08,0.093-1.366,0.278
						c-0.286,0.185-0.429,0.426-0.429,0.722c0,0.296,0.169,0.519,0.508,0.667c0.339,0.148,0.884,0.302,1.635,0.461
						c0.847,0.18,1.548,0.373,2.104,0.58c0.556,0.206,1.037,0.534,1.445,0.984c0.408,0.45,0.611,1.061,0.611,1.834
						C183.486,402.012,183.171,402.771,182.541,403.412z"/>
				</g>
			</g>
			<g>
				<path style="fill:#FFBA1F;" d="M360.295,274.799h-21.896c-2.623,0-4.749-2.126-4.749-4.749v-12.818
					c0-2.623,2.126-4.749,4.749-4.749h21.896c2.623,0,4.749,2.126,4.749,4.749v12.818
					C365.044,272.673,362.918,274.799,360.295,274.799z"/>
				<circle style="fill:#FFFFFF;" cx="341.213" cy="262.98" r="1.984"/>
				<circle style="fill:#FFFFFF;" cx="350.477" cy="263.085" r="1.984"/>
				<circle style="fill:#FFFFFF;" cx="358.919" cy="263.185" r="1.984"/>
			</g>
			<g>
				<rect x="118.428" y="353.096" style="fill:#ECDFEF;" width="31.394" height="22.316"/>
				<polygon style="fill:#FFFFFF;" points="125.331,362.978 132.423,369.786 145.33,360.141 142.919,357.446 132.706,365.531 
					127.458,360.708 				"/>
			</g>
			<g>
				<path style="fill:#EC4545;" d="M168.212,204.445h-22.784c-2.378,0-4.305-1.928-4.305-4.305v-13.706
					c0-2.378,1.928-4.305,4.305-4.305h22.784c2.378,0,4.305,1.928,4.305,4.305v13.706
					C172.517,202.518,170.589,204.445,168.212,204.445z"/>
				<path style="fill:#FFFFFF;" d="M156.668,190.409c0,0-4.824-4.303-6.749-1.238c-3.034,4.83,6.549,9.412,6.549,9.412
					s9.917-6.564,6.805-9.66C160.162,185.827,156.668,190.409,156.668,190.409z"/>
			</g>
			<g>
				<path style="fill:#EC4545;" d="M368.106,163.708h-22.784c-2.378,0-4.305-1.928-4.305-4.305v-13.706
					c0-2.378,1.927-4.305,4.305-4.305h22.784c2.378,0,4.305,1.927,4.305,4.305v13.706
					C372.411,161.781,370.484,163.708,368.106,163.708z"/>
				<path style="fill:#FFFFFF;" d="M356.562,149.672c0,0-4.824-4.303-6.749-1.238c-3.034,4.83,6.549,9.412,6.549,9.412
					s9.917-6.564,6.806-9.66C360.056,145.09,356.562,149.672,356.562,149.672z"/>
			</g>
			<path style="fill:#ECDFEF;" d="M159.085,233.196c0,5.633-4.573,10.205-10.205,10.205c-0.189,0-0.386-0.009-0.575-0.009v-20.401
				c0.189,0,0.386-0.009,0.575-0.009C154.513,222.982,159.085,227.554,159.085,233.196z"/>
			<path style="fill:#FFBA1F;" d="M412.132,245.678c0,5.633-4.573,10.205-10.205,10.205c-0.189,0-0.386-0.009-0.575-0.009v-20.401
				c0.189,0,0.386-0.009,0.575-0.009C407.559,235.464,412.132,240.036,412.132,245.678z"/>
			<path style="fill:#ECDFEF;" d="M357.097,299.01c0,5.633-4.573,10.205-10.205,10.205c-0.189,0-0.386-0.009-0.575-0.009v-20.401
				c0.189,0,0.386-0.009,0.575-0.009C352.525,288.797,357.097,293.369,357.097,299.01z"/>
			<path style="fill:#EC4545;" d="M323.622,130.502c0,5.633-4.573,10.205-10.205,10.205c-0.189,0-0.386-0.009-0.575-0.009v-20.401
				c0.189,0,0.386-0.009,0.575-0.009C319.05,120.288,323.622,124.86,323.622,130.502z"/>
			<path style="fill:#FFBA1F;" d="M338.067,192.761c0,6.204-5.037,11.241-11.241,11.241c-0.208,0-0.425-0.01-0.633-0.01V181.52
				c0.208,0,0.426-0.01,0.633-0.01C333.031,181.51,338.067,186.547,338.067,192.761z"/>
			<path style="fill:#FFBA1F;" d="M147.852,382.413c0,5.946-4.827,10.773-10.773,10.773c-0.199,0-0.408-0.01-0.607-0.01v-21.537
				c0.199,0,0.408-0.009,0.607-0.009C143.025,371.63,147.852,376.457,147.852,382.413z"/>
			<path style="fill:#FFBA1F;" d="M201.152,159.437c0,5.946,4.827,10.773,10.773,10.773c0.199,0,0.408-0.01,0.607-0.01v-21.537
				c-0.199,0-0.408-0.009-0.607-0.009C205.979,148.654,201.152,153.481,201.152,159.437z"/>
			<path style="fill:#FFBA1F;" d="M85.976,280.286c0,5.946,4.827,10.773,10.773,10.773c0.199,0,0.408-0.009,0.607-0.009v-21.537
				c-0.199,0-0.408-0.009-0.607-0.009C90.803,269.504,85.976,274.331,85.976,280.286z"/>
		</g>
	</g>
</g>
</svg>
